<svg width="290" height="222" viewBox="0 0 290 222" fill="none" xmlns="http://www.w3.org/2000/svg">
<g filter="url(#filter0_d_73_249)">
<path d="M105.385 42.8044L105.262 42.9267C104.403 43.844 103.421 44.272 102.501 44.272L104.219 41.2757C105.324 39.3801 104.28 37.5456 102.562 37.5456C101.15 37.5456 100.046 38.096 99.0024 39.9304L98.0819 41.5203L97.3454 42.8044L97.2227 42.9267C95.8725 44.4555 94.5837 45.6785 93.7859 45.6785C93.3563 45.6785 93.1722 45.3727 93.6018 44.7001L97.5295 37.8514H99.0024L99.5548 36.9953H98.0205L99.7389 33.999H97.8977L96.1793 36.9953H94.5223L93.97 37.8514H95.627L91.9447 44.2109C91.1469 45.5562 91.6993 46.8403 93.1722 46.8403C94.2155 46.8403 95.4429 46.0454 96.5476 44.9447C96.5476 47.2683 99.8002 47.7575 101.764 45.2504H102.194C103.298 45.2504 105.017 44.5778 105.937 43.4771C105.937 43.1713 105.63 42.9267 105.385 42.8044ZM101.457 42.9267H101.396C100.782 42.9267 100.291 43.4159 100.291 44.0274C100.291 44.272 100.353 44.4555 100.475 44.6389V44.7001C99.6161 46.1677 97.5295 45.9231 98.5728 43.9663L99.9844 41.5815L100.844 40.1139C102.132 37.9125 103.912 38.7686 102.807 40.6642L101.457 42.9267Z" fill="#766458"/>
<path d="M130.854 42.8042L130.731 42.9265C129.381 44.4552 127.724 45.6782 126.435 45.6782C125.331 45.6782 124.656 44.9444 125.453 43.4768L125.637 43.1711C126.803 43.6603 129.074 43.4157 130.424 41.0309L130.67 40.6028C131.652 38.8907 130.731 37.6677 129.197 37.6677C127.724 37.6677 126.558 38.4626 125.76 39.8079L123.98 42.8654L123.858 42.9877C122.508 44.5164 121.219 45.7394 120.421 45.7394C119.991 45.7394 119.807 45.4336 120.237 44.761L122.876 40.1136C123.674 38.7072 122.937 37.7288 121.894 37.7288C121.096 37.7288 120.237 38.1569 119.316 39.1353L122.262 34.0599H120.421L115.327 42.8042L115.204 42.9265C113.854 44.4552 112.565 45.6782 111.768 45.6782C111.338 45.6782 111.154 45.3725 111.583 44.6998L115.511 37.8511H116.984L117.536 36.995H116.002L117.721 33.9987H115.879L114.161 36.995H112.504L111.952 37.8511H113.609L109.926 44.2106C109.129 45.5559 109.681 46.8401 111.154 46.8401C111.89 46.8401 112.688 46.4732 113.486 45.8617L112.995 46.6566H114.836L117.598 41.8258C120.421 38.2792 121.648 38.7684 120.912 40.1136L118.518 44.2718C117.721 45.6171 118.273 46.9012 119.746 46.9012C120.851 46.9012 122.078 46.0451 123.183 44.9444C123.244 46.1063 124.226 46.9012 125.699 46.9012C127.785 46.9012 129.872 45.3113 131.345 43.538C131.406 43.1711 131.099 42.9265 130.854 42.8042ZM127.356 40.2359C128.399 38.4015 130.302 38.7072 129.197 40.6028L128.951 41.0309C128.092 42.4985 126.865 42.4985 126.19 42.2539L127.356 40.2359Z" fill="#766458"/>
<path d="M197.81 42.8044L197.687 42.9267C197.012 43.7217 196.214 44.3943 195.478 44.9446C196.091 43.1713 195.907 40.5419 197.073 38.1571L195.723 37.4233C194.987 38.4628 193.33 40.8476 191.611 42.8044L191.488 42.9267C190.138 44.4554 188.849 45.6784 188.052 45.6784C187.622 45.6784 187.438 45.3727 187.868 44.7L191.795 37.8513H189.954L186.701 43.5382C185.29 44.8223 184.247 45.495 183.878 45.3727C183.449 45.1892 183.878 44.5166 184.124 44.0886L187.683 37.8513H185.842L182.958 42.8044L182.835 42.9267C181.976 43.844 180.994 44.272 180.073 44.272L181.792 41.2757C182.896 39.3801 181.853 37.5456 180.135 37.5456C178.723 37.5456 177.619 38.0959 176.575 39.9304L175.655 41.5203L174.918 42.8044L174.796 42.9267C173.445 44.4554 171.788 45.6784 170.5 45.6784C169.395 45.6784 168.72 44.9446 169.518 43.4771L169.702 43.1713C170.868 43.6605 173.138 43.4159 174.489 41.0311L174.734 40.6031C175.716 38.8909 174.796 37.6679 173.261 37.6679C171.788 37.6679 170.622 38.4628 169.824 39.8081L168.045 42.8656L167.922 42.9879C166.388 44.7612 165.099 45.8619 163.626 46.4734L167.738 39.4412H166.633C166.633 38.7074 165.835 37.6679 164.731 37.6679C163.749 37.6679 162.337 38.4628 161.601 39.8081L159.821 42.8656L159.698 42.9879C158.348 44.5166 157.059 45.7396 156.261 45.7396C155.832 45.7396 155.648 45.4338 156.077 44.7612L157.918 41.5814C158.532 40.4808 158.225 39.8081 157.673 39.0743L156.63 37.8513C156.384 37.5456 156.384 37.1175 156.752 36.8118L155.77 35.7723C154.727 36.6895 154.666 37.729 155.28 38.5851L155.464 38.7686C154.666 39.9304 153.561 41.4591 152.334 42.8656L152.211 42.9879C151.352 43.9051 150.37 44.3332 149.449 44.3332L151.168 41.3368C152.272 39.4412 151.229 37.6067 149.511 37.6067C148.099 37.6067 146.994 38.1571 145.951 39.9916L145.031 41.5814L144.294 42.8656L144.171 42.9879C142.637 44.7612 141.348 45.8619 139.875 46.4734L143.987 39.4412H142.883C142.883 38.7074 142.085 37.6679 140.98 37.6679C139.998 37.6679 138.587 38.4628 137.85 39.8081L135.273 44.272C134.475 45.6173 135.027 46.9014 136.5 46.9014C136.991 46.9014 137.605 46.6568 138.28 46.2899L137.789 47.146C135.334 47.8798 133.738 48.9193 133.738 50.2646C133.738 52.038 136.439 52.4048 137.789 50.1423L139.2 47.7575C140.673 47.3295 142.085 46.4122 143.619 45.0058C143.619 47.3295 146.872 47.8187 148.836 45.3115H149.265C150.37 45.3115 152.088 44.6389 153.009 43.5382C153.868 42.4987 154.604 41.5814 156.077 39.6247L156.323 39.9304C156.568 40.2362 156.63 40.6031 156.446 40.9699L154.482 44.3332C153.684 45.6784 154.236 46.9626 155.709 46.9626C156.63 46.9626 157.673 46.3511 158.655 45.495C158.655 46.3511 159.207 46.9626 160.251 46.9626C160.742 46.9626 161.355 46.718 162.03 46.3511L161.601 47.0849C159.146 47.8187 157.55 48.8582 157.55 50.2035C157.55 51.9768 160.251 52.3437 161.601 50.0812L163.012 47.6964C164.485 47.2072 165.958 46.3511 167.492 44.8835C167.554 46.0453 168.474 46.8403 170.009 46.8403C171.481 46.8403 173.016 45.9842 174.243 44.8835C174.182 47.2683 177.496 47.7575 179.46 45.2504H179.889C180.442 45.2504 181.239 45.0669 181.915 44.7C181.424 45.9842 181.853 46.8403 182.896 46.8403C183.878 46.8403 185.044 45.923 185.904 45.0669C185.72 46.0453 186.333 46.8403 187.499 46.8403C189.034 46.8403 190.752 45.2504 192.286 43.4771C193.33 42.2541 194.25 40.9699 194.925 40.1139C194.189 42.0095 194.618 45.4338 192.839 45.4338C192.225 45.4338 191.979 44.7612 191.979 44.7612L190.813 45.3727C190.813 45.3727 191.12 46.8403 192.839 46.8403C193.023 46.8403 193.145 46.8403 193.33 46.7791H193.391C195.293 46.5345 197.135 45.0669 198.485 43.4771C198.423 43.1713 198.117 42.8656 197.81 42.8044ZM171.481 40.2362C172.525 38.4017 174.427 38.7074 173.323 40.6031L173.077 41.0311C172.218 42.4987 170.991 42.4987 170.315 42.2541L171.481 40.2362ZM136.377 49.7754C136.009 50.4481 135.395 50.3869 135.395 49.8366C135.395 49.3474 135.825 48.797 137.236 48.2467L136.377 49.7754ZM137.236 45.6784C136.807 45.6784 136.623 45.3727 137.052 44.7L139.63 40.2362C140.612 38.524 142.576 38.952 141.655 40.6031L140.244 43.049C139.139 44.8223 137.973 45.6784 137.236 45.6784ZM148.529 42.9267H148.467C147.854 42.9267 147.363 43.4159 147.363 44.0274C147.363 44.272 147.424 44.4555 147.547 44.6389V44.7C146.688 46.1676 144.601 45.923 145.644 43.9663L147.056 41.5814L147.915 40.1139C149.204 37.9125 150.984 38.7686 149.879 40.6642L148.529 42.9267ZM160.066 49.7754C159.698 50.4481 159.085 50.3869 159.085 49.8366C159.085 49.3474 159.514 48.797 160.926 48.2467L160.066 49.7754ZM160.926 45.6784C160.496 45.6784 160.312 45.3727 160.742 44.7L163.319 40.2362C164.301 38.524 166.265 38.952 165.344 40.6031L163.933 43.049C162.828 44.8223 161.662 45.6784 160.926 45.6784ZM179.03 42.9267H178.969C178.355 42.9267 177.864 43.4159 177.864 44.0274C177.864 44.272 177.925 44.4555 178.048 44.6389V44.7C177.189 46.1676 175.102 45.923 176.146 43.9663L177.557 41.5814L178.416 40.1139C179.705 37.9125 181.485 38.7686 180.38 40.6642L179.03 42.9267Z" fill="#766458"/>
<path d="M83.8437 40.8469H66.1074V42.0699H83.8437V40.8469Z" fill="#766458"/>
<path d="M223.156 40.8469H205.42V42.0699H223.156V40.8469Z" fill="#766458"/>
<path d="M104.035 0H108.76L108.024 27.456H99.1252L97.8978 16.1434L96.6704 27.456H87.7102L87.0351 0H91.6993L92.0675 22.7475H92.5585L95.5657 0H100.23L103.237 22.7475H103.728L104.035 0Z" fill="#81B3D3"/>
<path d="M123.551 22.7475V27.5171H110.724V0H123.551V4.70849H115.388V11.3126H121.894V16.0211H115.388V22.6864H123.551V22.7475Z" fill="#81B3D3"/>
<path d="M136.684 22.7475V27.5171H125.453V0H130.118V22.7475H136.684Z" fill="#81B3D3"/>
<path d="M146.626 17.3664L151.352 16.2657V24.582C151.352 26.1719 150.002 27.456 148.467 27.456H141.41C139.814 27.456 138.525 26.1107 138.525 24.582V2.87401C138.525 1.28413 139.814 0 141.41 0H148.467C150.002 0 151.352 1.28413 151.352 2.87401V8.43859L146.626 9.53928V4.64734H143.251V22.6864H146.626V17.3664Z" fill="#81B3D3"/>
<path d="M164.117 0C165.651 0 167.001 1.28413 167.001 2.87401V24.5208C167.001 26.1107 165.651 27.3948 164.117 27.3948H157.059C155.464 27.3948 154.175 26.0496 154.175 24.5208V2.87401C154.175 1.28413 155.464 0 157.059 0H164.117ZM162.276 4.70849H158.901V22.7475H162.276V4.70849Z" fill="#81B3D3"/>
<path d="M182.344 0H187.009V27.456H182.344V13.942L180.442 20.913H175.839L173.998 13.942V27.456H169.334V0H173.998L178.171 13.2694L182.344 0Z" fill="#81B3D3"/>
<path d="M202.167 22.7475V27.5171H189.341V0H202.167V4.70849H194.005V11.3126H200.51V16.0211H194.005V22.6864H202.167V22.7475Z" fill="#81B3D3"/>
<path d="M31.1874 96.3723C28.978 94.5378 26.2163 93.3148 23.2705 93.3148C21.0612 93.3148 18.1767 94.5989 18.1767 97.1672C18.1767 99.8578 21.4294 100.897 23.4546 101.509L26.5232 102.426C32.9058 104.322 37.8768 107.501 37.8768 114.9C37.8768 119.425 36.7721 124.134 33.1513 127.191C29.5304 130.249 24.7434 131.472 20.1406 131.472C14.3717 131.472 8.6642 129.515 4 126.274L8.97106 116.796C11.9782 119.426 15.4764 121.505 19.5882 121.505C22.4113 121.505 25.3571 120.098 25.3571 116.918C25.3571 113.555 20.6929 112.454 18.1153 111.721C10.6281 109.519 5.71839 107.624 5.71839 98.7571C5.71839 89.4624 12.3465 83.4086 21.5521 83.4086C26.155 83.4086 31.8625 84.8762 35.913 87.1999L31.1874 96.3723Z" fill="white"/>
<path d="M60.2158 94.6602V102.304H73.6561V112.393H60.2158V120.282H74.4539V130.371H48.3098V84.6317H74.4539V94.7213L60.2158 94.6602Z" fill="white"/>
<path d="M83.2914 84.6317H100.23C112.995 84.6317 123.551 94.6602 123.551 107.502C123.551 120.343 112.934 130.371 100.23 130.371H83.2914V84.6317ZM95.2587 120.282H97.9591C105.078 120.282 111.154 116.368 111.154 107.502C111.154 99.3075 105.753 94.7213 98.0818 94.7213H95.2587V120.282Z" fill="white"/>
<path d="M179.951 106.645C179.951 121.443 169.272 131.9 154.543 131.9C139.814 131.9 129.136 121.443 129.136 106.645C129.136 92.8255 141.348 83.1028 154.543 83.1028C167.738 83.1028 179.951 92.8255 179.951 106.645ZM141.533 106.706C141.533 114.595 147.363 120.343 154.482 120.343C161.601 120.343 167.431 114.595 167.431 106.706C167.431 100.408 161.601 94.5989 154.482 94.5989C147.424 94.5989 141.533 100.408 141.533 106.706Z" fill="white"/>
<path d="M186.272 84.6317H198.239L220.087 112.638H220.21V84.6317H232.178V130.371H220.21L198.362 102.304H198.239V130.371H186.272V84.6317Z" fill="white"/>
<path d="M253.842 122.422L250.65 130.371H238.008L255.683 84.6317H268.693L286 130.371H273.296L270.289 122.422H253.842ZM262.188 98.7572H262.065L257.156 113.311H267.098L262.188 98.7572Z" fill="white"/>
<path d="M70.2196 175.926C74.9451 174.336 75.252 168.466 70.6492 168.466C69.3604 168.466 67.8261 169.383 66.7828 171.156L60.5229 181.98C60.2161 182.469 59.9706 182.897 59.6024 183.325C58.0067 181.124 58.4363 177.821 60.707 176.354L59.7865 175.192C54.8768 178.311 56.3497 187.238 64.5121 187.238C71.447 187.238 74.6996 178.922 70.2196 175.926ZM64.4507 185.465C63.0391 185.465 61.9958 185.159 61.0753 184.67C61.5049 184.181 61.8731 183.631 62.2413 183.019L66.1691 176.232L66.7828 176.293C72.2448 177.455 70.0968 185.465 64.4507 185.465ZM66.9669 174.886L68.8694 171.645C70.5878 168.71 72.7358 170.422 71.5697 172.624C70.6492 174.336 69.3604 174.825 66.9669 174.886Z" fill="white"/>
<path d="M89.9196 183.448C89.5514 184.794 90.2878 185.955 91.8221 185.955C92.7427 185.955 93.9087 185.344 95.0748 184.427C95.1975 185.344 95.9339 185.955 97.1 185.955C98.3274 185.955 99.6776 185.099 101.028 183.876C100.782 185.099 101.335 185.955 102.501 185.955C103.789 185.955 105.201 184.794 106.306 183.754C106.06 184.977 106.797 185.955 108.27 185.955C110.172 185.955 112.381 183.876 114.345 181.675C114.345 181.614 114.284 181.614 114.284 181.553C115.573 180.085 116.677 178.495 117.537 177.394C116.616 179.779 117.107 184.121 114.898 184.121C114.1 184.121 113.793 183.265 113.793 183.265L112.32 183.999C112.32 183.999 112.75 185.894 114.898 185.894C115.143 185.894 115.327 185.894 115.573 185.833H115.634C117.352 185.588 119.009 184.549 120.482 183.265C120.544 184.794 121.71 185.894 123.612 185.894C126.251 185.894 128.89 183.815 130.793 181.614C130.609 181.308 130.24 180.941 129.934 180.819L129.749 181.002C128.092 182.959 125.944 184.488 124.287 184.488C122.876 184.488 122.017 183.571 123.06 181.736L123.305 181.308C124.778 181.919 127.601 181.614 129.381 178.617L129.688 178.067C130.915 175.927 129.749 174.337 127.847 174.337C125.944 174.337 124.471 175.315 123.49 177.028L121.219 180.88H121.157L120.973 181.063C120.114 182.042 119.071 182.959 118.15 183.571C118.887 181.369 118.703 177.945 120.176 175.01L118.457 174.092C117.475 175.438 115.389 178.434 113.302 180.88L113.363 180.941L113.302 181.063C111.645 183.02 109.988 184.549 108.945 184.549C108.454 184.549 108.147 184.182 108.699 183.265L113.67 174.582H111.338L107.226 181.797C105.446 183.387 104.096 184.304 103.667 184.121C103.114 183.876 103.667 183.02 103.974 182.531L108.515 174.643H106.183L102.501 181.002C102.439 180.941 102.378 180.941 102.317 180.88L102.132 181.063C100.475 183.02 98.8184 184.549 97.7751 184.549C97.2841 184.549 96.9773 184.182 97.5296 183.265L101.273 176.722H99.9231C99.9844 175.743 99.0025 174.398 97.4682 174.398C96.2408 174.398 94.461 175.377 93.4791 177.089L91.147 181.125C91.0243 181.002 90.9015 180.941 90.7788 180.88L90.5947 181.063C88.9377 183.02 86.7897 184.549 85.1326 184.549C83.7211 184.549 82.8619 183.632 83.9052 181.797L86.2987 177.639C87.6489 175.315 90.0423 175.743 88.6308 178.128L88.3239 178.679H90.2264L90.5333 178.128C91.7607 175.988 90.5947 174.398 88.6922 174.398C86.7897 174.398 85.3168 175.377 84.3348 177.089L82.0027 181.063C81.9414 181.002 81.88 181.002 81.8186 180.941L81.6345 181.125C79.9775 183.081 77.8295 184.61 76.1725 184.61C74.7609 184.61 73.9017 183.693 74.9451 181.858L75.1905 181.43C76.6634 182.042 79.4865 181.736 81.2663 178.74L81.5731 178.189C82.8005 176.049 81.6345 174.459 79.732 174.459C77.8295 174.459 76.3566 175.438 75.3746 177.15L72.9198 181.308C71.4469 183.754 72.7357 186.078 75.4974 186.078C77.5226 186.078 79.6092 184.855 81.2663 183.265C81.2049 184.855 82.4323 186.078 84.3962 186.078C86.3601 185.955 88.2626 184.855 89.9196 183.448ZM125.515 177.578C126.865 175.254 129.258 175.682 127.847 178.067L127.54 178.617C126.435 180.513 124.901 180.452 124.042 180.146L125.515 177.578ZM92.2517 183.265L95.5044 177.639C96.7318 175.499 99.248 176.049 98.0819 178.128L96.2408 181.308C94.8293 183.509 93.4177 184.549 92.4972 184.549C92.0062 184.488 91.6993 184.182 92.2517 183.265ZM77.3999 177.578C78.7501 175.254 81.1435 175.682 79.732 178.067L79.4251 178.617C78.3205 180.513 76.7862 180.452 75.927 180.146L77.3999 177.578Z" fill="white"/>
<path d="M156.323 185.954C158.962 185.954 161.601 183.875 163.503 181.674C163.319 181.368 162.951 181.001 162.644 180.879L162.46 181.062C160.803 183.019 158.655 184.548 156.998 184.548C155.587 184.548 154.727 183.63 155.771 181.796L156.016 181.368C157.489 181.979 160.312 181.674 162.092 178.677L162.399 178.127C163.626 175.987 162.46 174.397 160.558 174.397C158.655 174.397 157.182 175.375 156.2 177.087L153.93 180.94C153.93 180.94 153.868 180.94 153.868 180.879L153.684 181.062C152.027 183.019 150.37 184.548 149.327 184.548C148.836 184.548 148.529 184.181 149.081 183.263L152.457 177.393C153.439 175.62 152.518 174.336 151.229 174.336C150.247 174.336 149.143 174.886 147.977 176.109L151.72 169.688H149.327L142.76 181.001C142.699 180.94 142.576 180.879 142.515 180.817L142.33 181.001C140.673 182.958 139.016 184.486 137.973 184.486C137.482 184.486 137.175 184.12 137.728 183.202L142.699 174.519H144.601L145.276 173.418H143.374L145.583 169.627H143.251L141.042 173.418H138.955L138.28 174.519H140.428L135.764 182.591C134.782 184.303 135.457 185.893 137.359 185.893C138.525 185.893 139.753 185.159 141.042 184.058L140.121 185.648H142.453L146.013 179.533C149.572 175.069 151.168 175.62 150.186 177.332L147.179 182.591C146.197 184.303 146.872 185.893 148.774 185.893C150.186 185.893 151.782 184.792 153.254 183.325C153.254 184.853 154.421 185.954 156.323 185.954ZM158.226 177.577C159.576 175.253 161.969 175.681 160.558 178.066L160.251 178.616C159.146 180.512 157.612 180.451 156.753 180.145L158.226 177.577Z" fill="white"/>
<path d="M226.9 180.879L226.716 181.063C225.059 183.019 223.402 184.548 222.358 184.548C221.867 184.548 221.561 184.181 222.113 183.264L229.968 169.689H227.636L224.199 175.559C223.77 174.886 223.033 174.336 222.051 174.336C220.824 174.336 219.044 175.315 218.062 177.027L215.792 180.94C215.73 180.94 215.669 180.879 215.669 180.879L215.485 181.063C213.828 183.019 212.171 184.548 211.127 184.548C210.636 184.548 210.33 184.181 210.882 183.264L214.257 177.394C215.239 175.62 214.319 174.336 213.03 174.336C212.048 174.336 210.943 174.886 209.777 176.048L210.636 174.52H208.304L204.561 180.94C204.499 180.879 204.438 180.818 204.315 180.818L204.131 181.001C202.474 182.958 200.817 184.487 199.774 184.487C199.283 184.487 198.976 184.12 199.528 183.203L203.272 176.66H202.106C202.167 175.681 201.185 174.336 199.651 174.336C198.424 174.336 196.644 175.315 195.662 177.027L193.391 180.879L193.268 181.001C191.611 182.958 189.954 184.487 188.911 184.487C188.42 184.487 188.113 184.12 188.666 183.203L190.998 179.167C191.796 177.76 191.427 176.966 190.691 176.048L189.402 174.458C189.095 174.03 189.095 173.541 189.525 173.113L188.297 171.768C186.947 172.93 186.886 174.275 187.684 175.315L187.868 175.559C186.824 177.027 185.474 178.983 183.94 180.757C184.001 180.818 184.063 180.879 184.124 180.94C182.222 183.142 180.565 184.548 178.724 185.343L181.669 180.329H179.399L179.153 180.757C177.926 182.897 176.514 184.487 174.673 184.487C173.077 184.487 172.771 182.897 174.182 180.512L174.857 179.35C175.287 179.412 175.716 179.473 176.207 179.473C184.492 179.473 188.482 168.405 181.178 168.405C179.89 168.405 178.355 169.322 177.312 171.095L173.691 177.332C172.341 176.599 171.604 175.315 171.604 174.03C171.604 172.93 172.095 171.89 173.077 171.095L172.341 169.75C170.684 170.912 169.947 172.502 169.947 174.092C169.947 175.926 170.991 177.699 172.893 178.678L172.218 179.901C170.561 182.714 170.868 185.832 174.182 185.832C175.164 185.832 176.023 185.526 176.698 185.098L176.085 186.138C172.955 187.116 170.991 188.339 170.991 190.113C170.991 192.314 174.428 192.803 176.085 189.929L177.864 186.872C180.258 186.138 182.651 184.487 185.229 181.491C185.167 181.429 185.167 181.368 185.106 181.246C186.149 180.023 187.009 178.861 188.788 176.476L189.095 176.843C189.402 177.21 189.525 177.699 189.218 178.189L186.763 182.469C185.781 184.181 186.456 185.771 188.359 185.771C189.525 185.771 190.814 185.037 192.041 183.937C192.041 184.976 192.716 185.771 194.066 185.771C194.987 185.771 196.153 185.16 197.319 184.242C197.442 185.16 198.178 185.771 199.344 185.771C200.449 185.771 201.676 185.098 202.842 184.059L201.983 185.526H204.315L207.875 179.35C211.434 174.886 213.03 175.498 211.987 177.21L208.979 182.469C207.998 184.181 208.673 185.771 210.575 185.771C211.802 185.771 213.153 184.915 214.503 183.753C214.38 184.915 215.117 185.771 216.528 185.771C217.449 185.771 218.615 185.16 219.781 184.242C219.903 185.16 220.64 185.771 221.806 185.771C223.708 185.771 225.918 183.692 227.882 181.491C227.636 181.368 227.207 181.001 226.9 180.879ZM179.092 172.196C179.767 171.034 180.565 170.484 181.178 170.484C184.861 170.484 182.283 178.005 176.207 178.005H175.716L179.092 172.196ZM174.121 189.685C173.63 190.541 172.832 190.418 172.832 189.807C172.832 189.195 173.384 188.523 175.164 187.85L174.121 189.685ZM198.485 181.246C197.073 183.447 195.662 184.487 194.741 184.487C194.25 184.487 193.944 184.12 194.496 183.203L197.749 177.577C198.976 175.437 201.492 175.987 200.326 178.066L198.485 181.246ZM221.008 181.124C219.597 183.447 218.185 184.487 217.203 184.487C216.712 184.487 216.405 184.12 216.958 183.203L220.21 177.577C221.438 175.437 223.954 175.987 222.788 178.066L221.008 181.124Z" fill="white"/>
<path d="M149.143 202.893L148.959 203.076C147.302 205.033 145.645 206.561 144.601 206.561C144.11 206.561 143.803 206.195 144.356 205.277L147.731 199.407C148.713 197.634 147.793 196.35 146.504 196.35C145.522 196.35 144.417 196.9 143.251 198.062L144.11 196.533H141.778L138.035 203.015C137.912 202.954 137.85 202.893 137.728 202.831L137.544 203.015C136.5 204.177 135.211 204.727 134.045 204.727L136.255 200.936C137.666 198.49 136.378 196.227 134.168 196.227C132.388 196.227 130.977 196.961 129.627 199.285L128.461 201.242L127.479 202.954C127.417 202.893 127.356 202.893 127.295 202.831L127.111 203.015C125.208 205.216 123.551 206.623 121.71 207.418L128.092 196.533H125.76L121.648 203.687C119.869 205.339 118.457 206.256 118.028 206.072C117.475 205.828 118.028 204.972 118.334 204.482L122.876 196.594H120.544L116.8 203.015C116.739 202.954 116.677 202.954 116.616 202.893L116.432 203.076C114.775 205.033 113.118 206.561 112.075 206.561C111.584 206.561 111.277 206.195 111.829 205.277L115.205 199.407C116.186 197.634 115.266 196.35 113.977 196.35C112.995 196.35 111.89 196.9 110.724 198.062L111.584 196.533H109.252L105.508 202.954C105.447 202.893 105.385 202.831 105.262 202.831L105.078 203.015C103.421 204.972 101.764 206.5 100.721 206.5C100.23 206.5 99.9231 206.133 100.475 205.216L104.219 198.673H102.869C102.93 197.695 101.948 196.35 100.414 196.35C99.1867 196.35 97.4069 197.328 96.425 199.04L94.0315 203.198C93.8474 203.076 93.6633 202.954 93.5405 202.893L93.3564 203.076C91.6994 205.033 89.6128 206.561 87.3421 206.561C85.7464 206.561 84.7645 204.972 86.176 202.587L86.8511 201.425C87.2807 201.486 87.7103 201.547 88.2013 201.547C90.6561 201.547 93.4792 200.263 95.3203 197.083C95.9954 195.922 96.2409 194.882 96.2409 193.965C96.2409 191.886 94.8907 190.479 93.1723 190.479C91.8835 190.479 90.3492 191.396 89.3059 193.17L85.685 199.407C84.3349 198.673 83.5984 197.389 83.5984 196.105C83.5984 195.004 84.0894 193.965 85.0713 193.17L84.3349 191.825C82.6779 192.986 81.9414 194.576 81.9414 196.166C81.9414 198.001 82.9847 199.774 84.8872 200.752L84.2121 201.975C82.5551 204.788 83.5371 207.907 86.8511 207.907C89.4287 207.907 91.3925 206.745 92.9882 205.216C92.4972 206.684 93.2337 207.907 94.8907 207.907C95.8113 207.907 96.9773 207.295 98.1434 206.378C98.2661 207.295 99.0026 207.907 100.169 207.907C101.273 207.907 102.501 207.234 103.667 206.195L102.808 207.662H105.14L108.699 201.486C112.259 197.022 113.854 197.634 112.811 199.346L109.804 204.605C108.822 206.317 109.497 207.907 111.4 207.907C112.627 207.907 114.038 207.051 115.389 205.828C115.082 207.112 115.695 207.907 116.862 207.907C117.966 207.907 119.255 206.99 120.298 206.011L119.01 208.213C115.88 209.13 113.854 210.414 113.854 212.187C113.854 214.389 117.291 214.878 118.948 212.004L120.728 208.946C122.692 208.335 124.594 207.112 126.62 205.155C126.313 208.396 130.609 209.13 133.248 205.828H133.739C134.598 205.828 135.764 205.522 136.807 204.91L135.273 207.601H137.605L141.164 201.425C144.724 196.961 146.32 197.573 145.276 199.285L142.269 204.544C141.287 206.256 141.962 207.846 143.865 207.846C145.767 207.846 147.977 205.767 149.941 203.565C149.879 203.382 149.45 203.015 149.143 202.893ZM91.2084 194.209C91.8835 193.048 92.6813 192.497 93.2951 192.497C94.1542 192.497 94.5838 193.048 94.5838 193.904C94.5838 196.044 91.9449 199.957 88.324 199.957H87.833L91.2084 194.209ZM99.4322 203.259C98.0206 205.461 96.6091 206.5 95.6885 206.5C95.1976 206.5 94.8907 206.133 95.443 205.216L98.6957 199.59C99.9231 197.45 102.439 198.001 101.273 200.08L99.4322 203.259ZM117.107 211.698C116.616 212.554 115.818 212.432 115.818 211.82C115.818 211.209 116.371 210.536 118.15 209.864L117.107 211.698ZM132.818 203.015H132.695C131.959 203.015 131.345 203.626 131.345 204.421C131.345 204.727 131.406 204.972 131.591 205.216V205.277C130.486 207.173 127.847 206.806 129.197 204.36L130.977 201.303L132.082 199.407C133.739 196.655 135.948 197.756 134.536 200.141L132.818 203.015Z" fill="white"/>
<path d="M203.088 203.688C202.965 203.322 202.536 202.955 202.229 202.893L202.045 203.077C201.185 204.055 200.142 204.973 199.221 205.584C199.958 203.383 199.774 199.958 201.247 197.023L199.528 196.106C198.546 197.451 196.46 200.448 194.373 202.893L194.189 203.077C192.532 205.034 190.875 206.562 189.832 206.562C189.341 206.562 188.85 206.073 188.85 204.973V203.994C190.507 204.178 192.225 203.138 193.33 201.242L193.944 200.142C196.092 196.412 192.593 195.189 190.2 197.39L193.514 191.642H191.182L184.554 203.138C184.431 203.016 184.247 202.893 184.124 202.832L183.94 203.016C182.283 204.973 180.135 206.501 178.478 206.501C177.067 206.501 176.207 205.584 177.251 203.75L179.644 199.591C180.994 197.268 183.388 197.696 181.976 200.081L181.669 200.631H183.572L183.879 200.081C185.106 197.94 183.94 196.351 182.038 196.351C180.135 196.351 178.662 197.329 177.68 199.041L175.409 202.955C175.348 202.955 175.287 202.893 175.287 202.893L175.103 203.077C173.446 205.034 171.789 206.562 170.745 206.562C170.254 206.562 169.947 206.196 170.5 205.278L175.471 196.595H173.139L169.027 203.811C167.247 205.401 165.897 206.318 165.467 206.134C164.915 205.89 165.467 205.034 165.774 204.545L170.316 196.656H167.984L163.442 204.422C162.951 204.85 162.399 205.278 161.969 205.645C162.706 203.444 162.522 200.019 163.994 197.084L162.276 196.167C161.294 197.512 155.955 204.606 153.807 207.052C153.991 207.357 154.359 207.602 154.666 207.847C156.016 206.318 160.435 200.631 161.233 199.53C160.312 201.915 160.803 206.257 158.594 206.257C157.796 206.257 157.489 205.401 157.489 205.401L156.016 206.134C156.016 206.134 156.446 208.03 158.594 208.03C158.839 208.03 159.023 208.03 159.269 207.969H159.33C160.496 207.785 161.662 207.296 162.767 206.501C162.767 207.419 163.319 208.03 164.301 208.03C165.59 208.03 167.002 206.868 168.106 205.829C167.861 207.052 168.597 208.03 170.07 208.03C171.543 208.03 173.139 206.868 174.673 205.339C174.673 206.868 175.9 208.03 177.803 208.03C179.705 208.03 181.547 206.99 183.204 205.584L181.915 207.847H184.247L186.886 203.26V205.095C186.886 207.052 187.254 208.091 189.157 208.091C191.059 208.091 193.268 206.012 195.232 203.811C196.583 202.282 197.687 200.692 198.546 199.591C197.626 201.976 198.117 206.318 195.907 206.318C195.11 206.318 194.803 205.462 194.803 205.462L193.33 206.196C193.33 206.196 193.759 208.091 195.907 208.091C196.153 208.091 196.337 208.091 196.583 208.03H196.644C198.976 207.602 201.369 205.706 203.088 203.688ZM187.622 201.854L188.297 200.692C190.998 196.962 192.839 198.002 191.98 199.408L190.875 201.304C190.2 202.527 188.175 203.383 187.622 201.854Z" fill="white"/>
<path d="M203.026 205.278C202.29 205.278 201.676 205.89 201.676 206.623C201.676 207.357 202.229 207.969 203.026 207.969C203.763 207.969 204.377 207.418 204.377 206.623C204.377 205.89 203.763 205.278 203.026 205.278Z" fill="white"/>
<path d="M203.149 204.36H205.481L212.785 191.702H210.452L203.149 204.36Z" fill="white"/>
<path d="M53.2196 169.751C53.2196 169.934 53.1582 170.117 53.0968 170.301C53.0354 170.484 52.9127 170.668 52.79 170.79C52.6672 170.912 52.4831 171.035 52.299 171.157C52.1149 171.218 51.8694 171.279 51.6239 171.279C51.3171 171.279 51.0716 171.218 50.8261 171.096C50.5806 170.974 50.3351 170.851 50.151 170.668C49.9669 170.484 49.9055 170.301 49.7828 170.056C49.7214 169.812 49.66 169.567 49.66 169.261C49.66 168.711 49.7828 168.283 49.9669 167.794C50.151 167.366 50.3965 166.938 50.7647 166.632C50.8875 166.51 51.0716 166.326 51.2557 166.204C51.4398 166.082 51.6239 165.959 51.808 165.898C51.9921 165.837 52.1149 165.715 52.2376 165.654C52.3604 165.592 52.4217 165.592 52.4831 165.531L53.3423 166.754C53.2196 166.815 53.0354 166.877 52.8513 166.999C52.6672 167.06 52.4831 167.182 52.299 167.305C52.1149 167.427 51.9921 167.61 51.8694 167.794C51.7466 167.977 51.6853 168.161 51.6853 168.405C52.1149 168.405 52.4217 168.528 52.7286 168.772C53.0968 168.956 53.2196 169.323 53.2196 169.751ZM58.0679 169.751C58.0679 169.934 58.0065 170.117 57.9451 170.301C57.8838 170.484 57.761 170.668 57.6383 170.79C57.5155 170.912 57.3314 171.035 57.1473 171.157C56.9632 171.218 56.7177 171.279 56.4722 171.279C56.1654 171.279 55.9199 171.218 55.6744 171.096C55.4289 170.974 55.1834 170.851 54.9993 170.668C54.8766 170.484 54.7538 170.301 54.6311 170.056C54.5697 169.812 54.5083 169.567 54.5083 169.261C54.5083 168.711 54.6311 168.283 54.8152 167.794C54.9993 167.366 55.2448 166.938 55.613 166.632C55.7358 166.51 55.9199 166.326 56.104 166.204C56.2881 166.082 56.4722 165.959 56.6563 165.898C56.8404 165.837 56.9632 165.715 57.0859 165.654C57.2087 165.592 57.27 165.592 57.3314 165.531L58.1906 166.754C58.0679 166.815 57.8838 166.877 57.6996 166.999C57.5155 167.06 57.3314 167.182 57.1473 167.305C56.9632 167.427 56.8404 167.61 56.7177 167.794C56.595 167.977 56.5336 168.161 56.5336 168.405C56.9632 168.405 57.27 168.528 57.5769 168.772C57.8838 168.956 58.0679 169.323 58.0679 169.751Z" fill="white"/>
<path d="M220.763 205.767C220.763 205.584 220.824 205.4 220.885 205.217C220.947 205.033 221.069 204.85 221.192 204.728C221.315 204.605 221.499 204.483 221.683 204.361C221.867 204.3 222.113 204.239 222.358 204.239C222.665 204.239 222.911 204.3 223.156 204.422C223.402 204.544 223.647 204.667 223.831 204.85C224.015 205.033 224.077 205.217 224.199 205.462C224.261 205.706 224.322 205.951 224.322 206.256C224.322 206.807 224.199 207.235 224.015 207.724C223.831 208.152 223.586 208.58 223.217 208.886C223.095 209.008 222.911 209.192 222.726 209.314C222.542 209.436 222.358 209.558 222.174 209.62C221.99 209.681 221.867 209.803 221.745 209.864C221.622 209.925 221.56 209.925 221.499 209.987L220.64 208.764C220.763 208.702 220.947 208.641 221.131 208.519C221.315 208.458 221.499 208.336 221.683 208.213C221.867 208.091 221.99 207.907 222.113 207.724C222.236 207.541 222.297 207.357 222.297 207.113C221.867 207.113 221.56 206.99 221.254 206.746C220.947 206.562 220.763 206.195 220.763 205.767ZM215.976 205.767C215.976 205.584 216.037 205.4 216.098 205.217C216.16 205.033 216.282 204.85 216.405 204.728C216.528 204.605 216.712 204.483 216.896 204.361C217.08 204.3 217.326 204.239 217.571 204.239C217.878 204.239 218.124 204.3 218.369 204.422C218.615 204.544 218.86 204.667 219.044 204.85C219.167 205.033 219.29 205.217 219.412 205.462C219.474 205.706 219.535 205.951 219.535 206.256C219.535 206.807 219.412 207.235 219.228 207.724C219.044 208.152 218.799 208.58 218.43 208.886C218.308 209.008 218.124 209.192 217.94 209.314C217.755 209.436 217.571 209.558 217.387 209.62C217.203 209.681 217.08 209.803 216.958 209.864C216.835 209.925 216.773 209.925 216.712 209.987L215.853 208.764C216.037 208.702 216.16 208.641 216.344 208.519C216.528 208.458 216.712 208.336 216.896 208.213C217.08 208.091 217.203 207.907 217.326 207.724C217.449 207.541 217.51 207.357 217.51 207.113C217.08 207.113 216.773 206.99 216.467 206.746C216.098 206.562 215.976 206.195 215.976 205.767Z" fill="white"/>
</g>
<defs>
<filter id="filter0_d_73_249" x="0" y="0" width="290" height="222" filterUnits="userSpaceOnUse" color-interpolation-filters="sRGB">
<feFlood flood-opacity="0" result="BackgroundImageFix"/>
<feColorMatrix in="SourceAlpha" type="matrix" values="0 0 0 0 0 0 0 0 0 0 0 0 0 0 0 0 0 0 127 0" result="hardAlpha"/>
<feOffset dy="4"/>
<feGaussianBlur stdDeviation="2"/>
<feComposite in2="hardAlpha" operator="out"/>
<feColorMatrix type="matrix" values="0 0 0 0 0 0 0 0 0 0 0 0 0 0 0 0 0 0 0.25 0"/>
<feBlend mode="normal" in2="BackgroundImageFix" result="effect1_dropShadow_73_249"/>
<feBlend mode="normal" in="SourceGraphic" in2="effect1_dropShadow_73_249" result="shape"/>
</filter>
</defs>
</svg>
